<svg width="19" height="17" viewBox="0 0 19 17" fill="none" xmlns="http://www.w3.org/2000/svg">
<path d="M9.13635 0C4.11496 0 0 3.81066 0 8.42075C0 13.0041 4.07745 16.776 9.13635 16.776C14.189 16.776 18.2727 13.0097 18.2727 8.42075C18.2727 3.81066 14.1577 0 9.13635 0ZM10.7424 15.6455C10.2285 15.7438 9.68242 15.793 9.13635 15.793C8.59028 15.793 8.04422 15.7438 7.53035 15.6455V13.3454C7.53035 12.7949 7.69095 12.5984 7.90509 12.3329C8.0141 12.2185 8.07991 12.1158 8.56882 11.4385L7.74449 11.3205C5.62448 11.0355 4.78942 10.0229 4.45748 9.23656C4.02922 8.18486 4.25409 6.86758 5.02502 6.03219C5.14282 5.90433 5.23916 5.68802 5.15356 5.46199C4.99282 5.0098 5.01429 4.29229 5.12135 4.01698C5.68903 4.09147 6.27274 4.46482 6.75956 4.73462C6.98387 4.8548 7.10153 4.82306 7.20915 4.83292C7.60034 4.75817 8.21053 4.57732 9.14709 4.57732C9.72522 4.57732 10.3356 4.65591 10.9352 4.81321C11.0424 4.8109 11.2147 4.89461 11.5133 4.73462C12.0221 4.44997 12.586 4.08942 13.1514 4.01698C13.2584 4.29229 13.2799 5.0098 13.1193 5.46199C13.0336 5.68802 13.1299 5.90433 13.2478 6.03219C14.0186 6.86771 14.2435 8.18486 13.8152 9.23656C13.4833 10.0229 12.6482 11.0355 10.5282 11.3205L9.70389 11.4385C10.2092 12.1386 10.2625 12.2226 10.3678 12.3329C10.5818 12.5984 10.7424 12.7949 10.7424 13.3454V15.6455ZM11.813 15.3605V13.3454C11.813 12.7851 11.6845 12.4116 11.5131 12.1363C13.1406 11.7334 14.297 10.8486 14.8109 9.58059C15.357 8.24386 15.1108 6.65141 14.2005 5.55043C14.3613 4.89192 14.3613 3.8401 13.9758 3.34861C13.8045 3.13244 13.5689 3.01443 13.2692 3.01443C13.2584 3.01443 13.2584 3.01443 13.2584 3.01443C12.4282 3.05564 11.7748 3.43949 11.0743 3.83024C10.4319 3.67294 9.77875 3.59435 9.12562 3.59435C8.46189 3.59435 7.79802 3.6828 7.20929 3.83024C6.47182 3.42195 5.82468 3.05462 4.97149 3.01443C4.70382 3.01443 4.46822 3.13244 4.29689 3.34861C3.91156 3.8401 3.91156 4.89192 4.07216 5.55043C3.16195 6.65141 2.91575 8.25359 3.46182 9.58059C3.97569 10.8486 5.13209 11.7334 6.75956 12.1363C6.6267 12.3497 6.52158 12.625 6.48018 12.9976C6.15145 13.1016 5.86636 13.1355 5.6012 13.064C5.32155 12.9881 5.10365 12.8167 4.91433 12.5244C4.48913 11.8686 3.7649 11.3332 2.94029 11.4028L3.03439 12.3819C3.41623 12.3498 3.79626 12.7207 3.99367 13.0265C4.31933 13.53 4.75805 13.8602 5.29799 14.0066C5.69879 14.115 6.06516 14.1125 6.45969 14.0352V15.3605C3.34402 14.3578 1.07067 11.6252 1.07067 8.42075C1.07067 4.35129 4.70382 0.982966 9.13635 0.982966C13.5689 0.982966 17.202 4.35129 17.202 8.42075C17.202 11.6252 14.9287 14.3578 11.813 15.3605Z" fill="white"/>
</svg>
